<svg xmlns="http://www.w3.org/2000/svg" viewBox="0 0 202 51" width="202" height="51">
    <g fill="none" fill-rule="evenodd">
        <g fill-rule="nonzero" transform="translate(142)">
            <path fill="#FF4141" d="M57.36 39.22c-3.16 1.65-19.57 8.4-23.06 10.22-3.5 1.82-5.43 1.8-8.2.48-2.75-1.32-20.2-8.37-23.35-9.87-1.58-.76-2.4-1.39-2.4-1.99v-6s22.73-4.94 26.4-6.26c3.66-1.32 4.94-1.36 8.06-.22 3.12 1.14 21.8 4.51 24.88 5.64v5.92c0 .59-.71 1.24-2.33 2.08z"></path>
            <path fill="#F56C6C" d="M57.36 33.22c-3.16 1.65-19.57 8.4-23.06 10.22-3.5 1.82-5.43 1.8-8.2.48-2.75-1.32-20.2-8.37-23.35-9.87-3.15-1.5-3.21-2.54-.12-3.75 3.08-1.21 20.45-8.02 24.12-9.34 3.66-1.32 4.94-1.36 8.06-.22 3.12 1.14 19.43 7.64 22.52 8.77 3.08 1.13 3.2 2.06.03 3.7z"></path>
            <path fill="#FF4141" d="M57.36 29.44c-3.16 1.65-19.57 8.4-23.06 10.21-3.5 1.83-5.43 1.8-8.2.49-2.75-1.32-20.2-8.37-23.35-9.88-1.58-.75-2.4-1.38-2.4-1.98v-6s22.73-4.95 26.4-6.26c3.66-1.32 4.94-1.37 8.06-.22 3.12 1.14 21.8 4.51 24.88 5.64v5.91c0 .6-.71 1.25-2.33 2.09z"></path>
            <path fill="#F56C6C" d="M57.36 23.44c-3.16 1.65-19.57 8.4-23.06 10.21-3.5 1.83-5.43 1.8-8.2.49-2.75-1.32-20.2-8.37-23.35-9.88-3.15-1.5-3.21-2.53-.12-3.74 3.08-1.21 20.45-8.02 24.12-9.34 3.66-1.32 4.94-1.36 8.06-.22 3.12 1.14 19.43 7.63 22.52 8.76 3.08 1.13 3.2 2.07.03 3.72z"></path>
            <path fill="#FF4141" d="M57.36 19.3C54.2 20.93 37.8 27.68 34.3 29.5c-3.5 1.82-5.43 1.8-8.2.48-2.75-1.31-20.2-8.37-23.35-9.87-1.58-.75-2.4-1.38-2.4-1.98v-6s22.73-4.95 26.4-6.27c3.66-1.31 4.94-1.36 8.06-.22 3.12 1.15 21.8 4.52 24.88 5.65v5.91c0 .6-.71 1.24-2.33 2.08z"></path>
            <path fill="#F56C6C" d="M57.36 13.3C54.2 14.93 37.8 21.68 34.3 23.5c-3.5 1.82-5.43 1.8-8.2.48-2.75-1.31-20.2-8.37-23.35-9.87-3.15-1.5-3.21-2.54-.12-3.75 3.08-1.2 20.45-8.02 24.12-9.33C30.4-.28 31.69-.33 34.8.82c3.12 1.14 19.43 7.63 22.52 8.76 3.08 1.13 3.2 2.06.03 3.71z"></path>
            <polygon fill="#FFFFFF" points="37.794 7.516 32.653 8.05 31.501 10.82 29.642 7.729 23.705 7.195 28.135 5.598 26.806 3.145 30.954 4.768 34.864 3.487 33.807 6.023"></polygon>
            <polygon fill="#FFFFFF" points="31.194 20.954 21.598 16.973 35.349 14.863"></polygon>
            <ellipse cx="17.89" cy="11.9" fill="#FFFFFF" rx="7.35" ry="2.85"></ellipse>
            <polygon fill="#B20817" points="43.871 8.273 52.01 11.49 43.878 14.702"></polygon>
            <polygon fill="#EA1126" points="34.868 11.835 43.871 8.273 43.878 14.702 42.996 15.048"></polygon>
        </g>
        <polygon fill="#909399" points="100 25 91 25 91 27 100 27 100 36 102 36 102 27 111 27 111 25 102 25 102 16 100 16"></polygon>
        <path fill="#FB503B" d="M60.95 23.2c-.43.09-7.43 1.83-7.43 1.83l-5.73-7.87c-.16-.22-.3-.45.1-.5.4-.06 6.92-1.23 7.21-1.3.3-.07.55-.15.91.35s5.32 6.76 5.5 7c.2.24-.13.4-.56.48m-1.22 13.55c.17.28.35.45-.2.65s-18.55 6.28-18.9 6.43c-.35.15-.63.2-1.08-.45-.45-.65-6.3-10.79-6.3-10.79l19.08-4.96c.56-.18.69-.11.92.22.32.46 6.3 8.63 6.48 8.9m-30.9-5.79l-11.79 2.8c-.58.14-.58.07-.65-.13-.07-.2-13.03-26.93-13.21-27.27-.18-.33-.17-.6 0-.6s10.35-.9 10.71-.92c.36-.02.32.05.46.28l14.6 25.22c.26.44.38.5-.13.62m35.58-7.27c-.43-.49-6.34-7.9-7.39-9.15-1.04-1.26-1.55-1.03-2.19-.94l-9 1.5c-.87.15-1.42.5-.88 1.24l6.48 9.19-19.57 4.69L16.29 4.18c-.62-.92-.75-1.24-2.16-1.17-1.41.06-12.21.96-12.98 1.02-.77.07-1.62.41-.85 2.23.77 1.81 13.04 28.24 13.38 29.01.34.77 1.23 2.02 3.31 1.52 2.13-.51 9.53-2.44 13.57-3.5 2.13 3.86 6.49 11.7 7.3 12.83 1.07 1.5 1.8 1.25 3.46.75 1.29-.39 20.16-7.18 21-7.53.86-.35 1.38-.6.8-1.45-.41-.62-5.4-7.3-8-10.78l8.81-2.35c.8-.21.9-.6.47-1.08"></path>
    </g>
</svg>